<svg width="150" height="14" viewBox="0 0 150 14" fill="none" xmlns="http://www.w3.org/2000/svg">
<path d="M3.56411 10.3118C2.84097 10.3118 2.21174 10.1804 1.67642 9.91739C1.14111 9.65443 0.727883 9.28816 0.436747 8.81859C0.145611 8.34901 4.30553e-05 7.80431 4.30553e-05 7.18447H1.23972C1.23972 7.56952 1.32894 7.9264 1.50738 8.2551C1.68581 8.57441 1.94408 8.83267 2.28217 9.02989C2.62966 9.21772 3.05697 9.31164 3.56411 9.31164C4.23091 9.31164 4.74744 9.15198 5.1137 8.83267C5.47997 8.51336 5.66311 8.11422 5.66311 7.63526C5.66311 7.24082 5.57858 6.9262 5.40954 6.69142C5.24049 6.44724 5.0104 6.25002 4.71926 6.09975C4.43752 5.94949 4.10882 5.81801 3.73316 5.70531C3.36689 5.59261 2.98184 5.46583 2.578 5.32496C1.81729 5.06199 1.25381 4.73799 0.887538 4.35294C0.52127 3.9585 0.338136 3.44666 0.338136 2.81743C0.328745 2.29151 0.450834 1.82663 0.704404 1.4228C0.957974 1.00957 1.31485 0.69026 1.77503 0.464864C2.24461 0.230077 2.7987 0.112684 3.43732 0.112684C4.06655 0.112684 4.61126 0.230077 5.07144 0.464864C5.54102 0.699651 5.90259 1.02366 6.15616 1.43688C6.41912 1.85011 6.5553 2.31968 6.56469 2.8456H5.32501C5.32501 2.57325 5.25458 2.30559 5.1137 2.04263C4.97283 1.77028 4.75683 1.54958 4.46569 1.38053C4.18395 1.21149 3.82707 1.12696 3.39506 1.12696C2.85975 1.11757 2.41835 1.25375 2.07086 1.53549C1.73277 1.81724 1.56372 2.20698 1.56372 2.70473C1.56372 3.12735 1.68112 3.45136 1.9159 3.67675C2.16008 3.90215 2.49818 4.08998 2.93018 4.24024C3.36219 4.38111 3.85994 4.54546 4.42343 4.73329C4.893 4.90234 5.31562 5.09956 5.69128 5.32496C6.06694 5.55035 6.35808 5.84149 6.56469 6.19836C6.78069 6.55524 6.88869 7.01073 6.88869 7.56482C6.88869 8.0344 6.7666 8.48049 6.52243 8.90311C6.27825 9.31633 5.90728 9.65443 5.40954 9.91739C4.92118 10.1804 4.30604 10.3118 3.56411 10.3118ZM12.1732 10.3118C11.5158 10.3118 10.9241 10.1616 10.3982 9.86104C9.87225 9.56051 9.45433 9.1379 9.14441 8.59319C8.84388 8.03909 8.69362 7.39108 8.69362 6.64915C8.69362 5.90723 8.84858 5.26391 9.1585 4.7192C9.46842 4.16511 9.88634 3.7378 10.4123 3.43727C10.9476 3.13674 11.5439 2.98648 12.2013 2.98648C12.8587 2.98648 13.4504 3.13674 13.9763 3.43727C14.5022 3.7378 14.9155 4.16511 15.216 4.7192C15.5259 5.26391 15.6809 5.90723 15.6809 6.64915C15.6809 7.39108 15.5259 8.03909 15.216 8.59319C14.9061 9.1379 14.4835 9.56051 13.9482 9.86104C13.4222 10.1616 12.8306 10.3118 12.1732 10.3118ZM12.1732 9.29755C12.577 9.29755 12.9527 9.19894 13.3001 9.00172C13.6476 8.8045 13.9294 8.50867 14.1454 8.11422C14.3614 7.71978 14.4694 7.23143 14.4694 6.64915C14.4694 6.06688 14.3614 5.57853 14.1454 5.18408C13.9388 4.78964 13.6617 4.49381 13.3142 4.29659C12.9667 4.09937 12.5958 4.00076 12.2013 4.00076C11.7975 4.00076 11.4218 4.09937 11.0744 4.29659C10.7269 4.49381 10.4451 4.78964 10.2291 5.18408C10.0131 5.57853 9.90512 6.06688 9.90512 6.64915C9.90512 7.23143 10.0131 7.71978 10.2291 8.11422C10.4451 8.50867 10.7222 8.8045 11.0603 9.00172C11.4078 9.19894 11.7787 9.29755 12.1732 9.29755ZM17.8193 10.1428V3.15552H18.8899L18.9885 4.49381C19.2045 4.03363 19.5332 3.66736 19.9746 3.39501C20.416 3.12265 20.9607 2.98648 21.6087 2.98648V4.22615H21.2847C20.8715 4.22615 20.4912 4.30128 20.1437 4.45155C19.7962 4.59242 19.5191 4.8366 19.3125 5.18408C19.1059 5.53157 19.0026 6.01053 19.0026 6.62098V10.1428H17.8193ZM26.191 10.1428C25.5524 10.1428 25.05 9.98783 24.6837 9.67791C24.3174 9.36799 24.1343 8.80919 24.1343 8.00153V4.15572H22.9228V3.15552H24.1343L24.2893 1.47914H25.3176V3.15552H27.3744V4.15572H25.3176V8.00153C25.3176 8.44293 25.4069 8.74345 25.5853 8.90311C25.7637 9.05337 26.0783 9.1285 26.5291 9.1285H27.2617V10.1428H26.191ZM37.3251 10.3118C36.7522 10.3118 36.2404 10.1944 35.7896 9.95965C35.3482 9.72486 35.0101 9.39616 34.7753 8.97355L34.6626 10.1428H33.592V-1.39144e-05H34.7753V4.31068C35.0007 3.97258 35.32 3.66736 35.7333 3.39501C36.1559 3.12265 36.6912 2.98648 37.3392 2.98648C38.0342 2.98648 38.6399 3.14613 39.1565 3.46544C39.673 3.78475 40.0721 4.22146 40.3539 4.77555C40.645 5.32965 40.7906 5.95888 40.7906 6.66324C40.7906 7.3676 40.645 7.99683 40.3539 8.55093C40.0721 9.09563 39.6683 9.52764 39.1424 9.84695C38.6258 10.1569 38.0201 10.3118 37.3251 10.3118ZM37.1983 9.28346C37.6679 9.28346 38.0811 9.17546 38.438 8.95946C38.7949 8.73406 39.0766 8.42414 39.2832 8.0297C39.4899 7.63526 39.5932 7.17508 39.5932 6.64915C39.5932 6.12323 39.4899 5.66305 39.2832 5.26861C39.0766 4.87416 38.7949 4.56894 38.438 4.35294C38.0811 4.12754 37.6679 4.01484 37.1983 4.01484C36.7288 4.01484 36.3155 4.12754 35.9587 4.35294C35.6018 4.56894 35.32 4.87416 35.1134 5.26861C34.9068 5.66305 34.8035 6.12323 34.8035 6.64915C34.8035 7.17508 34.9068 7.63526 35.1134 8.0297C35.32 8.42414 35.6018 8.73406 35.9587 8.95946C36.3155 9.17546 36.7288 9.28346 37.1983 9.28346ZM43.1275 13.242L44.8602 9.4666H44.4517L41.6765 3.15552H42.9585L45.2688 8.59319L47.72 3.15552H48.9455L44.3672 13.242H43.1275ZM51.0961 10.2132C50.8614 10.2132 50.6641 10.1381 50.5045 9.98783C50.3542 9.82817 50.2791 9.63564 50.2791 9.41025C50.2791 9.18485 50.3542 8.99702 50.5045 8.84676C50.6641 8.68711 50.8614 8.60728 51.0961 8.60728C51.3215 8.60728 51.5094 8.68711 51.6596 8.84676C51.8193 8.99702 51.8991 9.18485 51.8991 9.41025C51.8991 9.63564 51.8193 9.82817 51.6596 9.98783C51.5094 10.1381 51.3215 10.2132 51.0961 10.2132ZM51.0961 4.59242C50.8614 4.59242 50.6641 4.51729 50.5045 4.36702C50.3542 4.20737 50.2791 4.01484 50.2791 3.78945C50.2791 3.56405 50.3542 3.37622 50.5045 3.22596C50.6641 3.0663 50.8614 2.98648 51.0961 2.98648C51.3215 2.98648 51.5094 3.0663 51.6596 3.22596C51.8193 3.37622 51.8991 3.56405 51.8991 3.78945C51.8991 4.01484 51.8193 4.20737 51.6596 4.36702C51.5094 4.51729 51.3215 4.59242 51.0961 4.59242Z" fill="#A0AEC0"/>
<path d="M58.0577 10.1428V0.28173H59.5509V8.95946H64.0306V10.1428H58.0577ZM68.4411 10.3118C67.8495 10.3118 67.3611 10.2132 66.9761 10.016C66.591 9.81878 66.3046 9.56051 66.1168 9.2412C65.9289 8.9125 65.835 8.55562 65.835 8.17057C65.835 7.49439 66.098 6.95907 66.6239 6.56463C67.1498 6.17019 67.9011 5.97297 68.8779 5.97297H70.7092V5.84618C70.7092 5.30148 70.5589 4.89295 70.2584 4.62059C69.9673 4.34824 69.5869 4.21206 69.1173 4.21206C68.7041 4.21206 68.3425 4.31537 68.0326 4.52198C67.7321 4.7192 67.549 5.01504 67.4832 5.40948H65.99C66.0369 4.90234 66.206 4.47033 66.4971 4.11345C66.7976 3.74719 67.1733 3.47014 67.6241 3.28231C68.0843 3.08509 68.5867 2.98648 69.1314 2.98648C70.1081 2.98648 70.8642 3.24474 71.3995 3.76127C71.9348 4.26841 72.2024 4.96338 72.2024 5.84618V10.1428H70.9064L70.7796 8.94537C70.5824 9.33042 70.296 9.65443 69.9203 9.91739C69.5446 10.1804 69.0516 10.3118 68.4411 10.3118ZM68.737 9.10033C69.1408 9.10033 69.4789 9.00642 69.7513 8.81859C70.033 8.62136 70.249 8.3631 70.3993 8.04379C70.5589 7.72448 70.6575 7.3723 70.6951 6.98725H69.0328C68.4411 6.98725 68.0185 7.09055 67.765 7.29717C67.5208 7.50378 67.3987 7.76204 67.3987 8.07196C67.3987 8.39127 67.5161 8.64484 67.7509 8.83267C67.9951 9.01111 68.3238 9.10033 68.737 9.10033ZM77.2258 10.3118C76.343 10.3118 75.6152 10.0958 75.0423 9.66382C74.4694 9.23181 74.1407 8.65893 74.0562 7.94518H75.5636C75.6387 8.26449 75.8171 8.54154 76.0989 8.77632C76.3806 9.00172 76.7516 9.11442 77.2118 9.11442C77.6626 9.11442 77.9913 9.0205 78.1979 8.83267C78.4045 8.64484 78.5078 8.42884 78.5078 8.18466C78.5078 7.82778 78.3622 7.5883 78.0711 7.46621C77.7893 7.33473 77.3949 7.21734 76.8878 7.11403C76.4933 7.02951 76.0989 6.91681 75.7044 6.77594C75.3194 6.63507 74.9954 6.43785 74.7324 6.18428C74.4788 5.92131 74.3521 5.56913 74.3521 5.12773C74.3521 4.51729 74.5868 4.01015 75.0564 3.60631C75.526 3.19309 76.1834 2.98648 77.0286 2.98648C77.8081 2.98648 78.4373 3.17431 78.9163 3.54997C79.4047 3.92562 79.6911 4.45624 79.7756 5.14182H78.3387C78.2918 4.84129 78.1509 4.60651 77.9161 4.43746C77.6907 4.26841 77.3855 4.18389 77.0005 4.18389C76.6248 4.18389 76.3337 4.26372 76.127 4.42337C75.9204 4.57364 75.8171 4.77086 75.8171 5.01504C75.8171 5.25921 75.958 5.45174 76.2397 5.59261C76.5309 5.73348 76.9112 5.86027 77.3808 5.97297C77.8504 6.07627 78.2824 6.19836 78.6768 6.33924C79.0807 6.47072 79.4047 6.66794 79.6489 6.9309C79.893 7.19386 80.0151 7.57891 80.0151 8.08605C80.0245 8.72467 79.7756 9.25529 79.2685 9.67791C78.7707 10.1005 78.0899 10.3118 77.2258 10.3118ZM84.8071 10.1428C84.1215 10.1428 83.5768 9.97843 83.173 9.64973C82.7691 9.31164 82.5672 8.71528 82.5672 7.86066V4.40929H81.3698V3.15552H82.5672L82.7504 1.38053H84.0605V3.15552H86.0327V4.40929H84.0605V7.86066C84.0605 8.24571 84.1403 8.51336 84.2999 8.66363C84.469 8.8045 84.7554 8.87493 85.1593 8.87493H85.9622V10.1428H84.8071ZM94.6857 10.3118C93.8405 10.3118 93.1737 10.0489 92.6854 9.52295C92.2064 8.99702 91.9669 8.21284 91.9669 7.17038V3.15552H93.4602V7.01542C93.4602 8.36779 94.0143 9.04398 95.1225 9.04398C95.6765 9.04398 96.132 8.84676 96.4889 8.45232C96.8458 8.05788 97.0242 7.49439 97.0242 6.76185V3.15552H98.5175V10.1428H97.1933L97.0806 8.9172C96.8646 9.3492 96.5453 9.69199 96.1226 9.94556C95.7094 10.1897 95.2305 10.3118 94.6857 10.3118ZM100.91 13.242V3.15552H102.248L102.403 4.24024C102.629 3.91154 102.939 3.6204 103.333 3.36683C103.728 3.11326 104.235 2.98648 104.855 2.98648C105.531 2.98648 106.127 3.14613 106.644 3.46544C107.16 3.78475 107.564 4.22146 107.855 4.77555C108.156 5.32965 108.306 5.95888 108.306 6.66324C108.306 7.3676 108.156 7.99683 107.855 8.55093C107.564 9.09563 107.16 9.52764 106.644 9.84695C106.127 10.1569 105.526 10.3118 104.84 10.3118C104.296 10.3118 103.812 10.2038 103.389 9.98783C102.976 9.77182 102.648 9.4666 102.403 9.07216V13.242H100.91ZM104.587 9.01581C105.225 9.01581 105.751 8.7998 106.165 8.36779C106.578 7.9264 106.784 7.35352 106.784 6.64915C106.784 6.18897 106.691 5.78044 106.503 5.42357C106.315 5.06669 106.057 4.78964 105.728 4.59242C105.399 4.38581 105.019 4.2825 104.587 4.2825C103.948 4.2825 103.422 4.5032 103.009 4.9446C102.605 5.386 102.403 5.95418 102.403 6.64915C102.403 7.35352 102.605 7.9264 103.009 8.36779C103.422 8.7998 103.948 9.01581 104.587 9.01581ZM113.598 10.3118C112.922 10.3118 112.325 10.1522 111.809 9.83287C111.292 9.51356 110.888 9.07685 110.597 8.52275C110.306 7.96866 110.16 7.33943 110.16 6.63507C110.16 5.93071 110.306 5.30617 110.597 4.76147C110.888 4.20737 111.292 3.77536 111.809 3.46544C112.335 3.14613 112.936 2.98648 113.612 2.98648C114.166 2.98648 114.65 3.09448 115.063 3.31048C115.485 3.52649 115.814 3.83171 116.049 4.22615V-1.39144e-05H117.542V10.1428H116.204L116.049 9.05807C115.824 9.38677 115.514 9.67791 115.119 9.93148C114.725 10.185 114.218 10.3118 113.598 10.3118ZM113.865 9.01581C114.504 9.01581 115.025 8.79511 115.429 8.35371C115.842 7.91231 116.049 7.34412 116.049 6.64915C116.049 5.94479 115.842 5.37661 115.429 4.9446C115.025 4.5032 114.504 4.2825 113.865 4.2825C113.227 4.2825 112.701 4.5032 112.288 4.9446C111.874 5.37661 111.668 5.94479 111.668 6.64915C111.668 7.10934 111.762 7.51787 111.95 7.87474C112.137 8.23162 112.396 8.51336 112.724 8.71998C113.062 8.9172 113.443 9.01581 113.865 9.01581ZM122.285 10.3118C121.693 10.3118 121.205 10.2132 120.82 10.016C120.434 9.81878 120.148 9.56051 119.96 9.2412C119.772 8.9125 119.678 8.55562 119.678 8.17057C119.678 7.49439 119.941 6.95907 120.467 6.56463C120.993 6.17019 121.745 5.97297 122.721 5.97297H124.553V5.84618C124.553 5.30148 124.402 4.89295 124.102 4.62059C123.811 4.34824 123.43 4.21206 122.961 4.21206C122.548 4.21206 122.186 4.31537 121.876 4.52198C121.576 4.7192 121.392 5.01504 121.327 5.40948H119.833C119.88 4.90234 120.049 4.47033 120.341 4.11345C120.641 3.74719 121.017 3.47014 121.468 3.28231C121.928 3.08509 122.43 2.98648 122.975 2.98648C123.952 2.98648 124.708 3.24474 125.243 3.76127C125.778 4.26841 126.046 4.96338 126.046 5.84618V10.1428H124.75L124.623 8.94537C124.426 9.33042 124.139 9.65443 123.764 9.91739C123.388 10.1804 122.895 10.3118 122.285 10.3118ZM122.58 9.10033C122.984 9.10033 123.322 9.00642 123.595 8.81859C123.876 8.62136 124.092 8.3631 124.243 8.04379C124.402 7.72448 124.501 7.3723 124.539 6.98725H122.876C122.285 6.98725 121.862 7.09055 121.608 7.29717C121.364 7.50378 121.242 7.76204 121.242 8.07196C121.242 8.39127 121.36 8.64484 121.594 8.83267C121.838 9.01111 122.167 9.10033 122.58 9.10033ZM131.073 10.1428C130.387 10.1428 129.842 9.97843 129.438 9.64973C129.035 9.31164 128.833 8.71528 128.833 7.86066V4.40929H127.635V3.15552H128.833L129.016 1.38053H130.326V3.15552H132.298V4.40929H130.326V7.86066C130.326 8.24571 130.406 8.51336 130.565 8.66363C130.735 8.8045 131.021 8.87493 131.425 8.87493H132.228V10.1428H131.073ZM137.42 10.3118C136.735 10.3118 136.124 10.1616 135.589 9.86104C135.063 9.55112 134.65 9.12381 134.349 8.5791C134.049 8.0344 133.899 7.40047 133.899 6.67733C133.899 5.94479 134.044 5.30148 134.335 4.74738C134.636 4.19328 135.049 3.76127 135.575 3.45135C136.11 3.14144 136.73 2.98648 137.434 2.98648C138.12 2.98648 138.716 3.14144 139.223 3.45135C139.731 3.75188 140.125 4.15572 140.407 4.66286C140.689 5.17 140.829 5.72879 140.829 6.33924C140.829 6.43315 140.825 6.53646 140.815 6.64915C140.815 6.75246 140.811 6.86985 140.801 7.00133H135.364C135.411 7.67752 135.631 8.19405 136.026 8.55093C136.43 8.89841 136.894 9.07216 137.42 9.07216C137.843 9.07216 138.195 8.97824 138.477 8.79041C138.768 8.59319 138.984 8.33023 139.125 8.00153H140.618C140.43 8.65893 140.055 9.20833 139.491 9.64973C138.937 10.0911 138.247 10.3118 137.42 10.3118ZM137.42 4.21206C136.923 4.21206 136.481 4.36233 136.096 4.66286C135.711 4.95399 135.476 5.39539 135.392 5.98705H139.336C139.308 5.44235 139.115 5.01034 138.759 4.69103C138.402 4.37172 137.956 4.21206 137.42 4.21206ZM146.056 10.3118C145.379 10.3118 144.783 10.1522 144.266 9.83287C143.75 9.51356 143.346 9.07685 143.055 8.52275C142.764 7.96866 142.618 7.33943 142.618 6.63507C142.618 5.93071 142.764 5.30617 143.055 4.76147C143.346 4.20737 143.75 3.77536 144.266 3.46544C144.792 3.14613 145.393 2.98648 146.07 2.98648C146.624 2.98648 147.107 3.09448 147.521 3.31048C147.943 3.52649 148.272 3.83171 148.507 4.22615V-1.39144e-05H150V10.1428H148.662L148.507 9.05807C148.281 9.38677 147.971 9.67791 147.577 9.93148C147.183 10.185 146.675 10.3118 146.056 10.3118ZM146.323 9.01581C146.962 9.01581 147.483 8.79511 147.887 8.35371C148.3 7.91231 148.507 7.34412 148.507 6.64915C148.507 5.94479 148.3 5.37661 147.887 4.9446C147.483 4.5032 146.962 4.2825 146.323 4.2825C145.685 4.2825 145.159 4.5032 144.745 4.9446C144.332 5.37661 144.126 5.94479 144.126 6.64915C144.126 7.10934 144.22 7.51787 144.407 7.87474C144.595 8.23162 144.853 8.51336 145.182 8.71998C145.52 8.9172 145.901 9.01581 146.323 9.01581Z" fill="#171923"/>
</svg>
