<svg width="47" height="47" viewBox="0 0 47 47" fill="none" xmlns="http://www.w3.org/2000/svg">
<g clip-path="url(#clip0_1_427)">
<path d="M34.8779 8.75375C34.7213 8.75375 34.5646 8.71458 34.4275 8.63625C30.6675 6.6975 27.4167 5.875 23.5196 5.875C19.6421 5.875 15.9604 6.79542 12.6117 8.63625C12.1417 8.89083 11.5542 8.71458 11.28 8.24458C11.0254 7.77458 11.2017 7.1675 11.6717 6.91292C15.3142 4.935 19.3092 3.91667 23.5196 3.91667C27.6908 3.91667 31.3333 4.83708 35.3283 6.89333C35.8179 7.14792 35.9942 7.73542 35.7396 8.20542C35.5633 8.55792 35.2304 8.75375 34.8779 8.75375ZM6.85417 19.035C6.65833 19.035 6.4625 18.9763 6.28625 18.8588C5.83583 18.5454 5.73792 17.9383 6.05125 17.4879C7.99 14.7463 10.4575 12.5921 13.395 11.0842C19.5442 7.91167 27.4167 7.89208 33.5854 11.0646C36.5229 12.5725 38.9904 14.7071 40.9292 17.4292C41.2425 17.86 41.1446 18.4867 40.6942 18.8C40.2438 19.1133 39.6367 19.0154 39.3233 18.565C37.5608 16.0975 35.3283 14.1588 32.6846 12.8075C27.0642 9.92875 19.8771 9.92875 14.2763 12.8271C11.6129 14.1979 9.38042 16.1563 7.61792 18.6238C7.46125 18.8979 7.1675 19.035 6.85417 19.035ZM19.0938 42.6721C18.8392 42.6721 18.5846 42.5742 18.4083 42.3783C16.7046 40.6746 15.7842 39.5779 14.4721 37.2083C13.1208 34.7996 12.4158 31.8621 12.4158 28.7092C12.4158 22.8929 17.39 18.1538 23.5 18.1538C29.61 18.1538 34.5842 22.8929 34.5842 28.7092C34.5842 29.2575 34.1533 29.6883 33.605 29.6883C33.0567 29.6883 32.6258 29.2575 32.6258 28.7092C32.6258 23.97 28.5329 20.1121 23.5 20.1121C18.4671 20.1121 14.3742 23.97 14.3742 28.7092C14.3742 31.5292 15.0008 34.1338 16.1954 36.2488C17.4488 38.5008 18.3104 39.4604 19.8183 40.9879C20.1904 41.3796 20.1904 41.9867 19.8183 42.3783C19.6029 42.5742 19.3483 42.6721 19.0938 42.6721ZM33.135 39.0492C30.8046 39.0492 28.7483 38.4617 27.0642 37.3063C24.1463 35.3283 22.4033 32.1167 22.4033 28.7092C22.4033 28.1608 22.8342 27.73 23.3825 27.73C23.9308 27.73 24.3617 28.1608 24.3617 28.7092C24.3617 31.4704 25.7717 34.075 28.1608 35.6808C29.5513 36.6208 31.1767 37.0713 33.135 37.0713C33.605 37.0713 34.3883 37.0125 35.1717 36.8754C35.7004 36.7775 36.2096 37.13 36.3075 37.6783C36.4054 38.2071 36.0529 38.7163 35.5046 38.8142C34.3883 39.0296 33.4092 39.0492 33.135 39.0492ZM29.1988 43.0833C29.1204 43.0833 29.0225 43.0638 28.9442 43.0442C25.8304 42.1825 23.7938 41.0271 21.6592 38.9317C18.9175 36.2096 17.4096 32.5867 17.4096 28.7092C17.4096 25.5367 20.1121 22.9517 23.4413 22.9517C26.7704 22.9517 29.4729 25.5367 29.4729 28.7092C29.4729 30.8046 31.2942 32.5083 33.5463 32.5083C35.7983 32.5083 37.6196 30.8046 37.6196 28.7092C37.6196 21.3263 31.255 15.3338 23.4217 15.3338C17.86 15.3338 12.7683 18.4279 10.4771 23.2258C9.71333 24.8121 9.32167 26.6725 9.32167 28.7092C9.32167 30.2367 9.45875 32.6454 10.6338 35.7788C10.8296 36.2879 10.575 36.8558 10.0658 37.0321C9.55667 37.2279 8.98875 36.9538 8.8125 36.4642C7.85292 33.8988 7.38292 31.3529 7.38292 28.7092C7.38292 26.3592 7.83333 24.2246 8.71458 22.3642C11.3192 16.9004 17.0963 13.3558 23.4217 13.3558C32.3321 13.3558 39.5779 20.2296 39.5779 28.6896C39.5779 31.8621 36.8754 34.4471 33.5463 34.4471C30.2171 34.4471 27.5146 31.8621 27.5146 28.6896C27.5146 26.5942 25.6933 24.8904 23.4413 24.8904C21.1892 24.8904 19.3679 26.5942 19.3679 28.6896C19.3679 32.0383 20.6604 35.1717 23.03 37.5217C24.8904 39.3625 26.6725 40.3808 29.4338 41.1446C29.9625 41.2817 30.2563 41.83 30.1192 42.3392C30.0213 42.7896 29.61 43.0833 29.1988 43.0833Z" fill="#171923"/>
</g>
<defs>
<clipPath id="clip0_1_427">
<rect width="46.2609" height="46.2609" fill="white" transform="scale(1.01598)"/>
</clipPath>
</defs>
</svg>
