<svg width="104" height="20" viewBox="0 0 104 20" fill="none" xmlns="http://www.w3.org/2000/svg">
<path fill-rule="evenodd" clip-rule="evenodd" d="M9.00003 2.99999C9.38438 2.0918 11.6157 2.0918 12 2.99999L13 6.99999H18C18.9986 7.07841 19.761 8.35911 19 8.99999L15 12L16 17C16.2325 17.9579 14.8545 18.5127 14 18L11 15L7.00003 18C6.14554 18.5127 4.76753 17.9571 5.00003 17L6.00003 12L2.00003 8.99999C1.23906 8.35911 2.00141 7.07841 3.00003 6.99999H8.00003L9.00003 2.99999Z" fill="#171923"/>
<path fill-rule="evenodd" clip-rule="evenodd" d="M30 2.99999C30.3844 2.0918 32.6157 2.0918 33 2.99999L34 6.99999H39C39.9986 7.07841 40.761 8.35911 40 8.99999L36 12L37 17C37.2325 17.9579 35.8545 18.5127 35 18L32 15L28 18C27.1455 18.5127 25.7675 17.9571 26 17L27 12L23 8.99999C22.2391 8.35911 23.0014 7.07841 24 6.99999H29L30 2.99999Z" fill="#171923"/>
<path fill-rule="evenodd" clip-rule="evenodd" d="M51 2.99999C51.3844 2.0918 53.6157 2.0918 54 2.99999L55 6.99999H60C60.9986 7.07841 61.761 8.35911 61 8.99999L57 12L58 17C58.2325 17.9579 56.8545 18.5127 56 18L53 15L49 18C48.1455 18.5127 46.7675 17.9571 47 17L48 12L44 8.99999C43.2391 8.35911 44.0014 7.07841 45 6.99999H50L51 2.99999Z" fill="#171923"/>
<path d="M72 3.00002C72.0346 2.91145 71.9241 3.05335 72 3.00002C72.0758 2.94669 71.9086 3.00002 72 3.00002C72.0913 3.00002 72.9241 2.94669 73 3.00002C73.0758 3.05335 72.9653 2.91145 73 3.00002L75 8.00002C75.0326 8.08212 74.9313 7.94776 75 8.00002C75.0686 8.05228 74.9154 7.99294 75 8.00002H80C80.4087 8.03436 80.3113 8.72101 80 9.00002L76 12C75.9356 12.0577 76.0263 12.9157 76 13C75.9737 13.0844 75.9806 12.9137 76 13L77 17C77.0211 17.0928 77.0315 17.9106 77 18C76.9684 18.0895 77.0736 17.944 77 18C76.9264 18.0561 77.0909 17.9963 77 18C76.9091 18.0038 77.0776 18.0498 77 18L73 15C72.9277 14.9538 72.0847 15 72 15C71.9153 15 72.0723 14.9538 72 15L68 18C67.9224 18.0498 68.0909 18.0038 68 18C67.9091 17.9963 68.0736 18.0561 68 18C67.9264 17.944 68.0315 18.0895 68 18C67.9684 17.9106 67.9788 17.0928 68 17L69 13C69.0195 12.9137 69.0263 13.0844 69 13C68.9737 12.9157 69.0644 12.0576 69 12L65 9.00002C64.931 8.93787 65.0245 9.0918 65 9.00002C64.9754 8.90824 64.9719 9.09067 65 9.00002C65.0281 8.90937 64.9287 8.05916 65 8.00002C65.0713 7.94088 64.9093 8.00782 65 8.00002H70C70.0846 7.99294 69.9313 8.05228 70 8.00002C70.0686 7.94776 69.9674 8.08212 70 8.00002L72 3.00002Z" stroke="#171923" stroke-width="1.5" stroke-linecap="round" stroke-linejoin="round"/>
<path d="M93 3.00002C93.0346 2.91145 92.9241 3.05335 93 3.00002C93.0758 2.94669 92.9086 3.00002 93 3.00002C93.0913 3.00002 93.9241 2.94669 94 3.00002C94.0758 3.05335 93.9653 2.91145 94 3.00002L96 8.00002C96.0326 8.08212 95.9313 7.94776 96 8.00002C96.0686 8.05228 95.9154 7.99294 96 8.00002H101C101.409 8.03436 101.311 8.72101 101 9.00002L97 12C96.9356 12.0577 97.0263 12.9157 97 13C96.9737 13.0844 96.9806 12.9137 97 13L98 17C98.0211 17.0928 98.0315 17.9106 98 18C97.9684 18.0895 98.0736 17.944 98 18C97.9264 18.0561 98.0909 17.9963 98 18C97.9091 18.0038 98.0776 18.0498 98 18L94 15C93.9277 14.9538 93.0847 15 93 15C92.9153 15 93.0723 14.9538 93 15L89 18C88.9224 18.0498 89.0909 18.0038 89 18C88.9091 17.9963 89.0736 18.0561 89 18C88.9264 17.944 89.0315 18.0895 89 18C88.9684 17.9106 88.9788 17.0928 89 17L90 13C90.0195 12.9137 90.0263 13.0844 90 13C89.9737 12.9157 90.0644 12.0576 90 12L86 9.00002C85.931 8.93787 86.0245 9.0918 86 9.00002C85.9754 8.90824 85.9719 9.09067 86 9.00002C86.0281 8.90937 85.9287 8.05916 86 8.00002C86.0713 7.94088 85.9093 8.00782 86 8.00002H91C91.0846 7.99294 90.9313 8.05228 91 8.00002C91.0686 7.94776 90.9674 8.08212 91 8.00002L93 3.00002Z" stroke="#171923" stroke-width="1.5" stroke-linecap="round" stroke-linejoin="round"/>
</svg>
