<svg width="27" height="26" viewBox="0 0 27 26" fill="none" xmlns="http://www.w3.org/2000/svg">
<g clip-path="url(#clip0_1_440)">
<path d="M25.2 13.4194C25.2 12.5965 25.344 11.6628 25.2 10.9032H13.5V15.0968H19.8C19.5175 16.5474 19.2908 18.4674 18 19.2903V21.8065H21.6C23.9045 19.7862 25.2 16.9535 25.2 13.4194Z" fill="#4285F4"/>
<path d="M13.5 25.1613C16.7807 25.1613 19.5896 23.7041 21.6 21.8064L18 19.2903C16.912 20.0358 15.1348 20.129 13.5 20.129C10.3353 20.129 8.15551 18.0337 7.20001 15.0968H2.70001V18.4516C4.69937 22.5124 8.75016 25.1613 13.5 25.1613Z" fill="#34A853"/>
<path d="M6.3 15.0968C6.0548 14.3684 6.3 13.3807 6.3 12.5807C6.3 11.7806 6.0548 11.6316 6.3 10.9032V7.5484H1.8C0.941798 9.24001 0.899246 10.6876 0.900003 12.5807C0.900003 14.5395 0.969663 16.8128 1.8 18.4516L6.3 15.0968Z" fill="#FBBC05"/>
<path d="M13.5 5.87097C15.2757 5.87097 16.7466 6.31715 18 7.54839L21.6 4.19355C19.5055 2.18856 16.76 0.838715 13.5 0.838715C8.77226 0.838715 4.69006 3.48757 2.70001 7.54839L6.30001 10.9032C7.25106 7.96633 10.35 5.87097 13.5 5.87097Z" fill="#EA4335"/>
</g>
<defs>
<clipPath id="clip0_1_440">
<rect width="27" height="26" fill="white"/>
</clipPath>
</defs>
</svg>
