<svg width="110" height="19" viewBox="0 0 110 19" fill="none" xmlns="http://www.w3.org/2000/svg">
<path d="M4.42575 17.6028V16.0608C3.13074 15.9139 2.07604 15.46 1.26165 14.699C0.447261 13.938 0.026716 12.9167 1.46967e-05 11.635H2.70352C2.73022 12.1691 2.89043 12.6363 3.18414 13.0369C3.49121 13.4374 3.90508 13.7111 4.42575 13.8579V9.63245C4.3056 9.5924 4.17876 9.55235 4.04526 9.5123C3.9251 9.47224 3.79827 9.43219 3.66477 9.39214C2.58336 9.01832 1.75562 8.5377 1.18155 7.95027C0.620819 7.36284 0.340456 6.58183 0.340456 5.60723C0.327105 4.45908 0.700923 3.53788 1.46191 2.84365C2.2229 2.13607 3.21084 1.72887 4.42575 1.62207V-3.53317e-05H5.76749V1.64209C6.96905 1.76225 7.93697 2.18279 8.67125 2.90373C9.41889 3.61131 9.81273 4.52583 9.85279 5.64728H7.10923C7.09588 5.26012 6.96905 4.90632 6.72874 4.58591C6.50178 4.25214 6.18136 4.01851 5.76749 3.885V7.60983C5.8743 7.64988 5.9811 7.68993 6.08791 7.72998C6.19471 7.75669 6.30152 7.79006 6.40832 7.83011C7.10255 8.07043 7.73671 8.35079 8.31079 8.6712C8.88487 8.99162 9.34546 9.41884 9.69258 9.95287C10.0397 10.4735 10.2133 11.1477 10.2133 11.9755C10.2133 12.6697 10.0397 13.3172 9.69258 13.918C9.35881 14.5188 8.85816 15.0194 8.19063 15.42C7.53645 15.8071 6.72874 16.0274 5.76749 16.0808V17.6028H4.42575ZM3.02393 5.427C3.02393 5.85422 3.15077 6.20134 3.40443 6.46835C3.65809 6.72201 3.99853 6.9423 4.42575 7.12921V3.8049C4.01188 3.885 3.67144 4.06523 3.40443 4.3456C3.15077 4.62596 3.02393 4.98643 3.02393 5.427ZM7.48972 12.1557C7.48972 11.6217 7.32952 11.2012 7.0091 10.8941C6.68868 10.587 6.27481 10.3267 5.76749 10.1131V13.918C6.30152 13.8379 6.72206 13.6443 7.02913 13.3373C7.33619 13.0302 7.48972 12.6363 7.48972 12.1557ZM19.2586 15.8605V13.2571H12.3496V11.2145L18.9181 1.84235H21.8219V11.0343H23.6643V13.2571H21.8219V15.8605H19.2586ZM15.0932 11.0343H19.4188V4.66601L15.0932 11.0343ZM27.1213 16.0007C26.654 16.0007 26.2668 15.8538 25.9598 15.5601C25.666 15.2664 25.5192 14.9126 25.5192 14.4988C25.5192 14.0715 25.666 13.7111 25.9598 13.4174C26.2668 13.1236 26.654 12.9768 27.1213 12.9768C27.5885 12.9768 27.969 13.1236 28.2627 13.4174C28.5698 13.7111 28.7233 14.0715 28.7233 14.4988C28.7233 14.9126 28.5698 15.2664 28.2627 15.5601C27.969 15.8538 27.5885 16.0007 27.1213 16.0007ZM36.237 16.1008C34.942 16.1008 33.8339 15.8004 32.9127 15.1997C31.9915 14.5855 31.2772 13.7378 30.7699 12.6564C30.2759 11.5616 30.0289 10.2933 30.0289 8.85144C30.0289 7.42292 30.2759 6.16128 30.7699 5.06653C31.2772 3.97178 31.9915 3.12401 32.9127 2.52324C33.8339 1.90911 34.942 1.60204 36.237 1.60204C37.532 1.60204 38.6401 1.90911 39.5613 2.52324C40.4825 3.12401 41.1901 3.97178 41.684 5.06653C42.1914 6.16128 42.445 7.42292 42.445 8.85144C42.445 10.2933 42.1914 11.5616 41.684 12.6564C41.1901 13.7378 40.4825 14.5855 39.5613 15.1997C38.6401 15.8004 37.532 16.1008 36.237 16.1008ZM36.237 13.7978C37.2917 13.7978 38.1528 13.3573 38.8203 12.4761C39.4879 11.595 39.8216 10.3868 39.8216 8.85144C39.8216 7.31611 39.4879 6.10788 38.8203 5.22674C38.1528 4.3456 37.2917 3.90503 36.237 3.90503C35.1689 3.90503 34.3011 4.3456 33.6336 5.22674C32.9794 6.10788 32.6523 7.31611 32.6523 8.85144C32.6523 10.3868 32.9794 11.595 33.6336 12.4761C34.3011 13.3573 35.1689 13.7978 36.237 13.7978ZM45.0476 15.8605V1.44183H47.6109V9.95287L51.1355 5.92765H54.1795L50.1142 10.4535L54.8403 15.8605H51.6362L47.6109 10.8741V15.8605H45.0476Z" fill="#171923"/>
<path d="M55.9449 17.5107L59.9501 3.50851H61.6163L57.5951 17.5107H55.9449ZM63.2104 15.8605V7.44962H64.7123L67.56 13.0489L70.3957 7.44962H71.8976V15.8605H70.624V9.64847L68.0526 14.659H67.0674L64.484 9.66049V15.8605H63.2104ZM76.5865 16.0047C76.0178 16.0047 75.5051 15.8765 75.0485 15.6202C74.5999 15.3559 74.2435 14.9914 73.9791 14.5268C73.7148 14.0542 73.5826 13.5055 73.5826 12.8807C73.5826 12.2559 73.7148 11.7111 73.9791 11.2465C74.2515 10.7739 74.6159 10.4095 75.0725 10.1531C75.5291 9.88878 76.0378 9.75661 76.5985 9.75661C77.1673 9.75661 77.6759 9.88878 78.1245 10.1531C78.5811 10.4095 78.9416 10.7739 79.2059 11.2465C79.4782 11.7111 79.6144 12.2559 79.6144 12.8807C79.6144 13.5055 79.4782 14.0542 79.2059 14.5268C78.9416 14.9914 78.5811 15.3559 78.1245 15.6202C77.6679 15.8765 77.1552 16.0047 76.5865 16.0047ZM76.5865 14.9113C76.8909 14.9113 77.1713 14.8352 77.4276 14.683C77.6919 14.5308 77.9042 14.3065 78.0644 14.0101C78.2246 13.7057 78.3047 13.3292 78.3047 12.8807C78.3047 12.4321 78.2246 12.0596 78.0644 11.7632C77.9122 11.4588 77.7039 11.2305 77.4396 11.0783C77.1833 10.9261 76.9029 10.85 76.5985 10.85C76.2941 10.85 76.0098 10.9261 75.7454 11.0783C75.4891 11.2305 75.2808 11.4588 75.1206 11.7632C74.9604 12.0596 74.8803 12.4321 74.8803 12.8807C74.8803 13.3292 74.9604 13.7057 75.1206 14.0101C75.2808 14.3065 75.4891 14.5308 75.7454 14.683C76.0017 14.8352 76.2821 14.9113 76.5865 14.9113ZM81.2321 15.8605V9.9008H82.3616L82.4577 10.9462C82.6419 10.5777 82.9103 10.2893 83.2628 10.081C83.6232 9.86475 84.0358 9.75661 84.5004 9.75661C85.2213 9.75661 85.786 9.9809 86.1946 10.4295C86.6111 10.8781 86.8194 11.5469 86.8194 12.4361V15.8605H85.5577V12.5683C85.5577 11.4148 85.0851 10.838 84.1399 10.838C83.6673 10.838 83.2748 11.0062 82.9624 11.3427C82.658 11.6791 82.5058 12.1597 82.5058 12.7845V15.8605H81.2321ZM91.059 15.8605C90.4742 15.8605 90.0096 15.7203 89.6652 15.44C89.3207 15.1516 89.1485 14.6429 89.1485 13.914V10.9702H88.1272V9.9008H89.1485L89.3047 8.38684H90.4222V9.9008H92.1043V10.9702H90.4222V13.914C90.4222 14.2424 90.4902 14.4707 90.6264 14.5989C90.7706 14.719 91.0149 14.7791 91.3594 14.7791H92.0443V15.8605H91.059ZM93.6579 15.8605V7.20931H94.9316V10.862C95.1318 10.5176 95.4082 10.2493 95.7606 10.057C96.1211 9.85674 96.5176 9.75661 96.9502 9.75661C97.6631 9.75661 98.2238 9.9809 98.6324 10.4295C99.0409 10.8781 99.2452 11.5469 99.2452 12.4361V15.8605H97.9835V12.5683C97.9835 11.4148 97.5229 10.838 96.6017 10.838C96.1211 10.838 95.7206 11.0062 95.4002 11.3427C95.0878 11.6791 94.9316 12.1597 94.9316 12.7845V15.8605H93.6579ZM100.986 15.8605V7.20931H102.259V15.8605H100.986ZM104.809 18.504L106.239 15.3679H105.891L103.536 9.9008H104.917L106.744 14.3105L108.654 9.9008H110L106.155 18.504H104.809Z" fill="#655F5F"/>
</svg>
