<svg width="107" height="19" viewBox="0 0 107 19" fill="none" xmlns="http://www.w3.org/2000/svg">
<path d="M4.44925 17.6963V16.1461C3.14736 15.9985 2.08706 15.5422 1.26835 14.7771C0.449636 14.0121 0.0268578 12.9854 1.47747e-05 11.6969H2.71788C2.74472 12.2338 2.90578 12.7035 3.20105 13.1062C3.50975 13.5088 3.92581 13.7839 4.44925 13.9316V9.68366C4.32846 9.6434 4.20096 9.60313 4.06674 9.56287C3.94595 9.5226 3.81844 9.48234 3.68423 9.44208C2.59708 9.06627 1.76495 8.5831 1.18782 7.99255C0.624116 7.402 0.342264 6.61684 0.342264 5.63707C0.328842 4.48282 0.704645 3.55673 1.46967 2.85881C2.2347 2.14747 3.22789 1.73812 4.44925 1.63074V2.59195e-05H5.79812V1.65087C7.00606 1.77167 7.97912 2.19445 8.7173 2.91921C9.46891 3.63055 9.86484 4.54993 9.90511 5.67733H7.14698C7.13356 5.28811 7.00606 4.93244 6.76447 4.61032C6.5363 4.27479 6.21419 4.03991 5.79812 3.90569V7.6503C5.90549 7.69057 6.01286 7.73083 6.12023 7.77109C6.22761 7.79794 6.33498 7.83149 6.44235 7.87176C7.14027 8.11334 7.77779 8.3952 8.35492 8.71731C8.93205 9.03943 9.39509 9.46892 9.74405 10.0058C10.093 10.5292 10.2675 11.207 10.2675 12.0391C10.2675 12.7371 10.093 13.388 9.74405 13.992C9.40851 14.5959 8.9052 15.0993 8.23413 15.5019C7.57647 15.8911 6.76447 16.1126 5.79812 16.1663V17.6963H4.44925ZM3.03999 5.45588C3.03999 5.88537 3.1675 6.23433 3.42251 6.50276C3.67752 6.75777 4.01976 6.97922 4.44925 7.16713V3.82516C4.03319 3.90569 3.69094 4.08688 3.42251 4.36874C3.1675 4.65059 3.03999 5.01297 3.03999 5.45588ZM7.5295 12.2203C7.5295 11.6835 7.36844 11.2607 7.04632 10.952C6.7242 10.6433 6.30814 10.3816 5.79812 10.1668V13.992C6.33498 13.9114 6.75776 13.7168 7.06645 13.4081C7.37515 13.0994 7.5295 12.7035 7.5295 12.2203ZM12.5763 15.9448V14.0725C13.4352 13.3612 14.2674 12.6565 15.0727 11.9586C15.8914 11.2607 16.6161 10.5695 17.2469 9.88499C17.8912 9.20049 18.4012 8.53612 18.777 7.89189C19.1662 7.23423 19.3608 6.59671 19.3608 5.97932C19.3608 5.40219 19.1998 4.89218 18.8777 4.44926C18.569 4.00635 18.0522 3.7849 17.3275 3.7849C16.5893 3.7849 16.0323 4.02649 15.6565 4.50966C15.2807 4.99284 15.0928 5.57667 15.0928 6.26117H12.5964C12.6232 5.22771 12.8514 4.36874 13.2809 3.68424C13.7104 2.98632 14.2808 2.46959 14.9921 2.13405C15.7035 1.78509 16.5021 1.61061 17.3879 1.61061C18.824 1.61061 19.938 2.00655 20.7298 2.79842C21.5351 3.57686 21.9378 4.59019 21.9378 5.83839C21.9378 6.61684 21.7566 7.37516 21.3942 8.11334C21.0452 8.85153 20.5822 9.56287 20.0051 10.2474C19.4279 10.9319 18.8038 11.5761 18.1328 12.1801C17.4617 12.7706 16.8107 13.3209 16.1799 13.8309H22.28V15.9448H12.5763ZM25.8694 16.0857C25.3996 16.0857 25.0104 15.9381 24.7017 15.6428C24.4064 15.3476 24.2588 14.9919 24.2588 14.5758C24.2588 14.1463 24.4064 13.7839 24.7017 13.4887C25.0104 13.1934 25.3996 13.0458 25.8694 13.0458C26.3391 13.0458 26.7217 13.1934 27.0169 13.4887C27.3256 13.7839 27.48 14.1463 27.48 14.5758C27.48 14.9919 27.3256 15.3476 27.0169 15.6428C26.7217 15.9381 26.3391 16.0857 25.8694 16.0857ZM35.1148 16.1864C34.0814 16.1864 33.1888 16.0052 32.4372 15.6428C31.6991 15.2804 31.1152 14.7838 30.6857 14.153C30.2697 13.5088 30.0281 12.784 29.961 11.9787H32.4775C32.5983 12.5559 32.8936 13.039 33.3633 13.4283C33.8331 13.8041 34.4169 13.992 35.1148 13.992C35.8664 13.992 36.4771 13.7168 36.9469 13.1666C37.4301 12.6163 37.6716 11.9318 37.6716 11.1131C37.6716 10.2675 37.4301 9.59642 36.9469 9.09983C36.4771 8.60323 35.8799 8.35493 35.1551 8.35493C34.5511 8.35493 34.0277 8.50257 33.5848 8.79784C33.1419 9.09312 32.8265 9.46221 32.6386 9.90512H30.1623L31.3702 1.8522H39.1816V4.10702H33.3029L32.6587 7.36845C32.954 7.04633 33.3566 6.78461 33.8666 6.58329C34.3767 6.36854 34.9471 6.26117 35.5779 6.26117C36.5845 6.26117 37.4233 6.48934 38.0944 6.94567C38.7655 7.38858 39.2755 7.97913 39.6245 8.71731C39.9734 9.44208 40.1479 10.2339 40.1479 11.0929C40.1479 12.0727 39.9332 12.9451 39.5037 13.7101C39.0876 14.4752 38.4971 15.0791 37.732 15.522C36.9804 15.9649 36.108 16.1864 35.1148 16.1864ZM42.8883 15.9448V1.44955H45.4652V10.0058L49.0085 5.95919H52.0686L47.9817 10.5091L52.733 15.9448H49.5118L45.4652 10.9319V15.9448H42.8883Z" fill="#171923"/>
<path d="M53.7951 17.7326L57.8216 3.43057H59.8348L55.7922 17.7326H53.7951ZM61.4196 15.9448V7.48924H62.6034L65.6474 13.384L68.6672 7.48924H69.8631V15.9448H68.8484V9.30115L66.0218 14.7369H65.2608L62.4343 9.31323V15.9448H61.4196ZM74.5581 16.0898C73.9944 16.0898 73.4871 15.9609 73.0361 15.7032C72.5851 15.4455 72.2268 15.0831 71.961 14.6161C71.7033 14.141 71.5745 13.5853 71.5745 12.9491C71.5745 12.3129 71.7074 11.7613 71.9731 11.2942C72.2389 10.8191 72.5972 10.4527 73.0482 10.195C73.5072 9.93733 74.0186 9.80848 74.5823 9.80848C75.146 9.80848 75.6533 9.93733 76.1043 10.195C76.5552 10.4527 76.9096 10.8191 77.1672 11.2942C77.433 11.7613 77.5659 12.3129 77.5659 12.9491C77.5659 13.5853 77.433 14.141 77.1672 14.6161C76.9015 15.0831 76.5391 15.4455 76.0801 15.7032C75.6291 15.9609 75.1218 16.0898 74.5581 16.0898ZM74.5581 15.22C74.9044 15.22 75.2265 15.1355 75.5245 14.9664C75.8224 14.7973 76.064 14.5436 76.2492 14.2054C76.4344 13.8672 76.527 13.4484 76.527 12.9491C76.527 12.4498 76.4344 12.0311 76.2492 11.6929C76.072 11.3546 75.8345 11.101 75.5365 10.9319C75.2386 10.7628 74.9205 10.6782 74.5823 10.6782C74.236 10.6782 73.9139 10.7628 73.6159 10.9319C73.3179 11.101 73.0764 11.3546 72.8911 11.6929C72.7059 12.0311 72.6133 12.4498 72.6133 12.9491C72.6133 13.4484 72.7059 13.8672 72.8911 14.2054C73.0764 14.5436 73.3139 14.7973 73.6038 14.9664C73.9018 15.1355 74.2199 15.22 74.5581 15.22ZM79.2183 15.9448V9.95344H80.1363L80.1967 11.0285C80.39 10.65 80.6678 10.3521 81.0302 10.1346C81.3926 9.9172 81.8033 9.80848 82.2623 9.80848C82.971 9.80848 83.5347 10.0259 83.9534 10.4608C84.3802 10.8876 84.5936 11.5479 84.5936 12.4418V15.9448H83.5789V12.5505C83.5789 11.3023 83.0636 10.6782 82.0328 10.6782C81.5174 10.6782 81.0866 10.8674 80.7403 11.2459C80.4021 11.6164 80.233 12.1479 80.233 12.8404V15.9448H79.2183ZM88.7401 15.9448C88.1925 15.9448 87.7616 15.8119 87.4476 15.5462C87.1335 15.2804 86.9765 14.8013 86.9765 14.1087V10.8111H85.9376V9.95344H86.9765L87.1093 8.51599H87.9911V9.95344H89.7547V10.8111H87.9911V14.1087C87.9911 14.4872 88.0676 14.7449 88.2206 14.8818C88.3736 15.0107 88.6434 15.0751 89.03 15.0751H89.6581V15.9448H88.7401ZM91.2854 15.9448V7.24765H92.3001V10.9802C92.5014 10.6097 92.7873 10.3239 93.1577 10.1225C93.5281 9.91317 93.9308 9.80848 94.3656 9.80848C95.0582 9.80848 95.6138 10.0259 96.0326 10.4608C96.4513 10.8876 96.6607 11.5479 96.6607 12.4418V15.9448H95.6581V12.5505C95.6581 11.3023 95.1548 10.6782 94.1482 10.6782C93.6248 10.6782 93.1859 10.8674 92.8316 11.2459C92.4772 11.6164 92.3001 12.1479 92.3001 12.8404V15.9448H91.2854ZM98.4396 15.9448V7.24765H99.4543V15.9448H98.4396ZM102.011 18.6023L103.497 15.365H103.147L100.767 9.95344H101.866L103.847 14.6161L105.949 9.95344H107L103.074 18.6023H102.011Z" fill="#655F5F"/>
</svg>
