<svg width="102" height="19" viewBox="0 0 102 19" fill="none" xmlns="http://www.w3.org/2000/svg">
<path d="M4.43019 17.6205V16.077C3.13388 15.93 2.07812 15.4756 1.26292 14.7138C0.44771 13.9521 0.0267428 12.9297 1.47114e-05 11.6468H2.70623C2.73296 12.1814 2.89333 12.6491 3.18734 13.05C3.49471 13.4509 3.909 13.7249 4.43019 13.8719V9.64218C4.30992 9.60209 4.18296 9.562 4.04932 9.52191C3.92904 9.48181 3.80208 9.44172 3.66844 9.40163C2.58596 9.02744 1.75739 8.54633 1.18273 7.95831C0.621443 7.3703 0.340798 6.5885 0.340798 5.61292C0.327434 4.46362 0.701627 3.5415 1.46338 2.84657C2.22513 2.13827 3.21407 1.73067 4.43019 1.62376V2.58085e-05H5.77328V1.6438C6.97604 1.76408 7.94494 2.18505 8.67996 2.90671C9.42835 3.615 9.82259 4.53044 9.86268 5.65302H7.11637C7.103 5.26546 6.97604 4.91131 6.73549 4.59057C6.5083 4.25647 6.18757 4.0226 5.77328 3.88896V7.61753C5.88019 7.65762 5.98711 7.69771 6.09402 7.73781C6.20093 7.76453 6.30784 7.79794 6.41475 7.83804C7.10968 8.07859 7.74448 8.35923 8.31913 8.67997C8.89378 9.00071 9.35484 9.42836 9.70231 9.96292C10.0498 10.4841 10.2235 11.159 10.2235 11.9876C10.2235 12.6825 10.0498 13.3307 9.70231 13.932C9.36821 14.5334 8.86706 15.0346 8.19885 15.4355C7.54402 15.8231 6.73549 16.0436 5.77328 16.097V17.6205H4.43019ZM3.02697 5.43251C3.02697 5.86016 3.15393 6.20762 3.40785 6.4749C3.66176 6.72882 4.00255 6.94933 4.43019 7.13642V3.80878C4.01591 3.88896 3.67513 4.06938 3.40785 4.35002C3.15393 4.63067 3.02697 4.9915 3.02697 5.43251ZM7.49724 12.168C7.49724 11.6334 7.33687 11.2125 7.01614 10.9051C6.6954 10.5977 6.28111 10.3371 5.77328 10.1233V13.932C6.30784 13.8519 6.72881 13.6581 7.03618 13.3507C7.34356 13.0433 7.49724 12.6491 7.49724 12.168ZM14.3867 15.8765V4.77099L12.0814 5.31223V3.34772L15.4692 1.84426H17.0528V15.8765H14.3867ZM21.2169 16.0168C20.7491 16.0168 20.3616 15.8698 20.0542 15.5758C19.7602 15.2818 19.6132 14.9277 19.6132 14.5134C19.6132 14.0857 19.7602 13.7249 20.0542 13.4309C20.3616 13.1369 20.7491 12.9899 21.2169 12.9899C21.6846 12.9899 22.0655 13.1369 22.3595 13.4309C22.6669 13.7249 22.8206 14.0857 22.8206 14.5134C22.8206 14.9277 22.6669 15.2818 22.3595 15.5758C22.0655 15.8698 21.6846 16.0168 21.2169 16.0168ZM30.4227 16.1171C29.3937 16.1171 28.505 15.9366 27.7566 15.5758C27.0216 15.215 26.4402 14.7205 26.0126 14.0924C25.5983 13.4509 25.3578 12.7293 25.2909 11.9274H27.7967C27.917 12.5021 28.211 12.9832 28.6787 13.3708C29.1465 13.7449 29.7278 13.932 30.4227 13.932C31.1711 13.932 31.7792 13.6581 32.2469 13.1102C32.728 12.5622 32.9686 11.8807 32.9686 11.0655C32.9686 10.2235 32.728 9.55532 32.2469 9.06085C31.7792 8.56638 31.1845 8.31914 30.4628 8.31914C29.8614 8.31914 29.3402 8.46615 28.8992 8.76016C28.4582 9.05416 28.1442 9.42168 27.9571 9.86269H25.4914L26.6942 1.84426H34.472V4.08942H28.6186L27.9771 7.33688C28.2711 7.01615 28.672 6.75555 29.1799 6.55509C29.6877 6.34126 30.2557 6.23435 30.8838 6.23435C31.8861 6.23435 32.7213 6.46154 33.3896 6.91592C34.0578 7.35693 34.5656 7.94495 34.9131 8.67997C35.2605 9.40163 35.4342 10.1901 35.4342 11.0454C35.4342 12.021 35.2204 12.8896 34.7928 13.6514C34.3785 14.4131 33.7905 15.0145 33.0287 15.4555C32.2803 15.8966 31.4117 16.1171 30.4227 16.1171ZM38.1629 15.8765V1.44334H40.7288V9.96292L44.2569 5.93366H47.3039L43.2345 10.4641L47.9654 15.8765H44.758L40.7288 10.885V15.8765H38.1629Z" fill="#171923"/>
<path d="M49.023 17.6566L53.0322 3.41588H55.0368L51.0116 17.6566H49.023ZM56.6148 15.8765V7.45716H57.7935L60.8245 13.3266L63.8314 7.45716H65.0221V15.8765H64.0118V9.26131L61.1974 14.6737H60.4396L57.6251 9.27333V15.8765H56.6148ZM69.697 16.0208C69.1357 16.0208 68.6306 15.8925 68.1816 15.636C67.7325 15.3794 67.3757 15.0185 67.1111 14.5535C66.8545 14.0804 66.7262 13.5271 66.7262 12.8937C66.7262 12.2602 66.8585 11.7109 67.1231 11.2459C67.3877 10.7728 67.7446 10.4079 68.1936 10.1514C68.6506 9.89476 69.1598 9.76647 69.7211 9.76647C70.2824 9.76647 70.7875 9.89476 71.2366 10.1514C71.6856 10.4079 72.0384 10.7728 72.295 11.2459C72.5596 11.7109 72.6919 12.2602 72.6919 12.8937C72.6919 13.5271 72.5596 14.0804 72.295 14.5535C72.0304 15.0185 71.6696 15.3794 71.2125 15.636C70.7635 15.8925 70.2583 16.0208 69.697 16.0208ZM69.697 15.1548C70.0418 15.1548 70.3626 15.0707 70.6592 14.9023C70.9559 14.7339 71.1965 14.4813 71.3809 14.1445C71.5653 13.8078 71.6575 13.3908 71.6575 12.8937C71.6575 12.3965 71.5653 11.9796 71.3809 11.6428C71.2045 11.306 70.968 11.0534 70.6713 10.885C70.3746 10.7167 70.0579 10.6325 69.7211 10.6325C69.3763 10.6325 69.0556 10.7167 68.7589 10.885C68.4622 11.0534 68.2216 11.306 68.0372 11.6428C67.8528 11.9796 67.7606 12.3965 67.7606 12.8937C67.7606 13.3908 67.8528 13.8078 68.0372 14.1445C68.2216 14.4813 68.4582 14.7339 68.7469 14.9023C69.0435 15.0707 69.3603 15.1548 69.697 15.1548ZM74.3373 15.8765V9.9108H75.2514L75.3115 10.9813C75.5039 10.6044 75.7806 10.3077 76.1414 10.0912C76.5022 9.87472 76.9112 9.76647 77.3682 9.76647C78.0739 9.76647 78.6351 9.98297 79.0521 10.416C79.4771 10.8409 79.6896 11.4984 79.6896 12.3885V15.8765H78.6792V12.4967C78.6792 11.2539 78.1661 10.6325 77.1397 10.6325C76.6265 10.6325 76.1975 10.8209 75.8527 11.1978C75.516 11.5666 75.3476 12.0958 75.3476 12.7854V15.8765H74.3373ZM83.8182 15.8765C83.273 15.8765 82.844 15.7442 82.5313 15.4796C82.2186 15.215 82.0622 14.7379 82.0622 14.0483V10.7648H81.0278V9.9108H82.0622L82.1945 8.47951H83.0725V9.9108H84.8286V10.7648H83.0725V14.0483C83.0725 14.4252 83.1487 14.6818 83.301 14.8181C83.4534 14.9464 83.722 15.0105 84.1069 15.0105H84.7323V15.8765H83.8182ZM86.3527 15.8765V7.21661H87.363V10.9331C87.5635 10.5643 87.8481 10.2796 88.217 10.0792C88.5858 9.87071 88.9867 9.76647 89.4197 9.76647C90.1093 9.76647 90.6626 9.98297 91.0795 10.416C91.4965 10.8409 91.705 11.4984 91.705 12.3885V15.8765H90.7067V12.4967C90.7067 11.2539 90.2055 10.6325 89.2032 10.6325C88.682 10.6325 88.245 10.8209 87.8922 11.1978C87.5394 11.5666 87.363 12.0958 87.363 12.7854V15.8765H86.3527ZM93.4762 15.8765V7.21661H94.4866V15.8765H93.4762ZM97.0326 18.5226L98.512 15.2992H98.1632L95.7937 9.9108H96.8882L98.8608 14.5535L100.954 9.9108H102L98.091 18.5226H97.0326Z" fill="#655F5F"/>
</svg>
