<svg width="108" height="19" viewBox="0 0 108 19" fill="none" xmlns="http://www.w3.org/2000/svg">
<path d="M4.42153 17.586V16.0455C3.12776 15.8988 2.07406 15.4453 1.26045 14.685C0.446835 13.9248 0.0266905 12.9044 1.46827e-05 11.624H2.70094C2.72762 12.1575 2.88767 12.6243 3.18111 13.0244C3.48788 13.4246 3.90136 13.698 4.42153 13.8447V9.62327C4.30149 9.58326 4.17478 9.54324 4.0414 9.50323C3.92136 9.46322 3.79465 9.4232 3.66127 9.38319C2.5809 9.00973 1.75395 8.52956 1.18042 7.94269C0.620228 7.35583 0.340132 6.57556 0.340132 5.60189C0.326794 4.45483 0.700255 3.53451 1.46052 2.84094C2.22078 2.13403 3.20778 1.72723 4.42153 1.62052V-3.52981e-05H5.762V1.64053C6.96241 1.76057 7.92941 2.18071 8.66299 2.90096C9.40991 3.60787 9.80338 4.52152 9.8434 5.6419H7.10246C7.08912 5.2551 6.96241 4.90165 6.72232 4.58154C6.49558 4.24809 6.17547 4.01468 5.762 3.8813V7.60258C5.8687 7.64259 5.9754 7.68261 6.0821 7.72262C6.18881 7.74929 6.29551 7.78264 6.40221 7.82265C7.09579 8.06274 7.72934 8.34283 8.30287 8.66294C8.8764 8.98305 9.33656 9.40987 9.68334 9.94338C10.0301 10.4636 10.2035 11.1371 10.2035 11.9641C10.2035 12.6576 10.0301 13.3045 9.68334 13.9047C9.34989 14.5049 8.84972 15.0051 8.18283 15.4053C7.52927 15.7921 6.72233 16.0121 5.762 16.0655V17.586H4.42153ZM3.02105 5.42183C3.02105 5.84864 3.14776 6.19543 3.40118 6.46219C3.6546 6.71561 3.99472 6.93568 4.42153 7.12241V3.80127C4.00806 3.8813 3.66794 4.06136 3.40118 4.34146C3.14776 4.62155 3.02105 4.98168 3.02105 5.42183ZM7.48259 12.1441C7.48259 11.6106 7.32253 11.1905 7.00242 10.8837C6.68231 10.5769 6.26884 10.3168 5.762 10.1034V13.9047C6.29551 13.8247 6.71566 13.6313 7.02243 13.3245C7.3292 13.0178 7.48259 12.6243 7.48259 12.1441ZM17.4196 16.0855C16.4993 16.0855 15.6657 15.9254 14.9187 15.6053C14.1718 15.2719 13.5716 14.765 13.1181 14.0848C12.6646 13.4046 12.4245 12.5509 12.3979 11.5239H14.9187C14.9321 12.2042 15.1521 12.7777 15.579 13.2445C16.0191 13.698 16.6327 13.9248 17.4196 13.9248C18.1665 13.9248 18.74 13.718 19.1402 13.3045C19.5403 12.8911 19.7404 12.3709 19.7404 11.744C19.7404 11.0104 19.4736 10.4569 18.9401 10.0834C18.4199 9.69663 17.7464 9.50323 16.9194 9.50323H15.8791V7.40251H16.9394C17.6197 7.40251 18.1865 7.24245 18.64 6.92234C19.0935 6.60223 19.3202 6.12874 19.3202 5.50186C19.3202 4.98168 19.1469 4.5682 18.8001 4.26143C18.4666 3.94132 17.9998 3.78126 17.3996 3.78126C16.746 3.78126 16.2325 3.97466 15.8591 4.36146C15.4989 4.74826 15.2989 5.22176 15.2589 5.78195H12.758C12.8113 4.48817 13.2582 3.46782 14.0985 2.7209C14.9521 1.97398 16.0525 1.60052 17.3996 1.60052C18.3599 1.60052 19.1669 1.77391 19.8204 2.12069C20.4873 2.45414 20.9875 2.90096 21.3209 3.46115C21.6677 4.02135 21.8411 4.64156 21.8411 5.32179C21.8411 6.10873 21.621 6.77563 21.1809 7.32248C20.7541 7.856 20.2206 8.21612 19.5803 8.40285C20.3673 8.56291 21.0075 8.94971 21.501 9.56325C21.9945 10.1635 22.2413 10.9237 22.2413 11.844C22.2413 12.6176 22.0545 13.3245 21.6811 13.9648C21.3076 14.605 20.7607 15.1185 20.0405 15.5053C19.3336 15.8921 18.46 16.0855 17.4196 16.0855ZM26.1967 15.9855C25.7298 15.9855 25.343 15.8387 25.0363 15.5453C24.7428 15.2519 24.5961 14.8984 24.5961 14.4849C24.5961 14.0581 24.7428 13.698 25.0363 13.4046C25.343 13.1111 25.7298 12.9644 26.1967 12.9644C26.6635 12.9644 27.0436 13.1111 27.3371 13.4046C27.6438 13.698 27.7972 14.0581 27.7972 14.4849C27.7972 14.8984 27.6438 15.2519 27.3371 15.5453C27.0436 15.8387 26.6635 15.9855 26.1967 15.9855ZM35.3845 16.0855C34.3575 16.0855 33.4705 15.9054 32.7236 15.5453C31.99 15.1852 31.4098 14.6917 30.983 14.0648C30.5695 13.4246 30.3294 12.7043 30.2628 11.9041H32.7636C32.8837 12.4776 33.1771 12.9578 33.6439 13.3446C34.1107 13.718 34.6909 13.9047 35.3845 13.9047C36.1314 13.9047 36.7383 13.6313 37.2051 13.0845C37.6853 12.5376 37.9254 11.8574 37.9254 11.0438C37.9254 10.2035 37.6853 9.53658 37.2051 9.04307C36.7383 8.54957 36.1448 8.30282 35.4245 8.30282C34.8243 8.30282 34.3041 8.44954 33.864 8.74297C33.4238 9.0364 33.1104 9.4032 32.9237 9.84335H30.4628L31.6632 1.8406H39.4259V4.08137H33.5839L32.9437 7.32248C33.2371 7.00237 33.6373 6.74228 34.1441 6.54221C34.6509 6.32881 35.2178 6.2221 35.8447 6.2221C36.845 6.2221 37.6786 6.44885 38.3455 6.90234C39.0124 7.34249 39.5193 7.92936 39.8661 8.66294C40.2128 9.38319 40.3862 10.1701 40.3862 11.0238C40.3862 11.9974 40.1728 12.8644 39.746 13.6246C39.3325 14.3849 38.7457 14.9851 37.9854 15.4253C37.2385 15.8654 36.3715 16.0855 35.3845 16.0855ZM43.1095 15.8454V1.44046H45.6704V9.94338L49.1916 5.922H52.2326L48.1713 10.4436L52.8929 15.8454H49.6918L45.6704 10.8637V15.8454H43.1095Z" fill="#171923"/>
<path d="M53.9964 17.494L57.9978 3.50517H59.6624L55.645 17.494H53.9964ZM61.2549 15.8454V7.44252H62.7555L65.6004 13.0364L68.4334 7.44252H69.9339V15.8454H68.6615V9.63928L66.0926 14.645H65.1083L62.5274 9.65128V15.8454H61.2549ZM74.6183 15.9895C74.0501 15.9895 73.538 15.8614 73.0818 15.6053C72.6337 15.3412 72.2775 14.9771 72.0134 14.513C71.7494 14.0408 71.6173 13.4926 71.6173 12.8684C71.6173 12.2442 71.7494 11.7 72.0134 11.2358C72.2855 10.7637 72.6497 10.3995 73.1058 10.1435C73.562 9.87936 74.0702 9.74731 74.6303 9.74731C75.1985 9.74731 75.7067 9.87936 76.1549 10.1435C76.611 10.3995 76.9711 10.7637 77.2352 11.2358C77.5073 11.7 77.6434 12.2442 77.6434 12.8684C77.6434 13.4926 77.5073 14.0408 77.2352 14.513C76.9711 14.9771 76.611 15.3412 76.1549 15.6053C75.6987 15.8614 75.1865 15.9895 74.6183 15.9895ZM74.6183 14.8971C74.9224 14.8971 75.2025 14.8211 75.4586 14.669C75.7227 14.517 75.9348 14.2929 76.0948 13.9968C76.2549 13.6927 76.3349 13.3165 76.3349 12.8684C76.3349 12.4202 76.2549 12.0481 76.0948 11.752C75.9428 11.4479 75.7347 11.2198 75.4706 11.0678C75.2145 10.9157 74.9344 10.8397 74.6303 10.8397C74.3262 10.8397 74.0421 10.9157 73.7781 11.0678C73.522 11.2198 73.3139 11.4479 73.1538 11.752C72.9938 12.0481 72.9138 12.4202 72.9138 12.8684C72.9138 13.3165 72.9938 13.6927 73.1538 13.9968C73.3139 14.2929 73.522 14.517 73.7781 14.669C74.0341 14.8211 74.3142 14.8971 74.6183 14.8971ZM79.2595 15.8454V9.89136H80.3879L80.484 10.9357C80.668 10.5676 80.9361 10.2795 81.2882 10.0714C81.6484 9.85535 82.0605 9.74731 82.5247 9.74731C83.2449 9.74731 83.8091 9.97139 84.2172 10.4195C84.6334 10.8677 84.8415 11.5359 84.8415 12.4242V15.8454H83.581V12.5563C83.581 11.4039 83.1089 10.8277 82.1645 10.8277C81.6924 10.8277 81.3002 10.9957 80.9881 11.3319C80.684 11.668 80.532 12.1481 80.532 12.7724V15.8454H79.2595ZM89.077 15.8454C88.4928 15.8454 88.0287 15.7054 87.6846 15.4253C87.3404 15.1372 87.1684 14.629 87.1684 13.9007V10.9597H86.148V9.89136H87.1684L87.3244 8.37884H88.4408V9.89136H90.1214V10.9597H88.4408V13.9007C88.4408 14.2289 88.5088 14.4569 88.6449 14.585C88.7889 14.705 89.033 14.765 89.3771 14.765H90.0614V15.8454H89.077ZM91.6735 15.8454V7.20244H92.9459V10.8517C93.146 10.5076 93.4221 10.2395 93.7742 10.0474C94.1343 9.84735 94.5305 9.74731 94.9626 9.74731C95.6749 9.74731 96.235 9.97139 96.6432 10.4195C97.0513 10.8677 97.2554 11.5359 97.2554 12.4242V15.8454H95.995V12.5563C95.995 11.4039 95.5348 10.8277 94.6145 10.8277C94.1343 10.8277 93.7342 10.9957 93.4141 11.3319C93.102 11.668 92.9459 12.1481 92.9459 12.7724V15.8454H91.6735ZM98.9941 15.8454V7.20244H100.267V15.8454H98.9941ZM102.814 18.4863L104.243 15.3532H103.895L101.542 9.89136H102.922L104.747 14.2969L106.656 9.89136H108L104.159 18.4863H102.814Z" fill="#655F5F"/>
</svg>
