<svg width="30" height="30" viewBox="0 0 30 30" fill="none" xmlns="http://www.w3.org/2000/svg">
<g clip-path="url(#clip0_1_525)">
<path d="M24 13C19.1648 10.1286 10.6157 10.5991 6 12C5.25875 12.225 5.22453 11.741 5 11C4.77533 10.2583 5.25819 9.22533 6 9C11.2986 7.39169 19.4337 7.69578 25 11C25.6667 11.3959 26.3951 12.3344 26 13C25.6045 13.6667 24.6651 13.3958 24 13ZM24 18C23.6607 18.5505 22.5497 18.338 22 18C17.9689 15.5221 11.7691 14.5524 7 16C6.38155 16.1869 6.18786 15.6173 6 15C5.81366 14.3816 5.38266 14.1881 6 14C11.448 12.3468 18.3701 13.1548 23 16C23.5497 16.3386 24.338 17.4508 24 18ZM22 22C21.7304 22.4421 21.4405 22.2694 21 22C17.4776 19.8472 12.2213 19.8074 7 21C6.49685 21.1154 6.11474 20.5031 6 20C5.88475 19.4971 6.49574 19.1148 7 19C12.7138 17.6938 18.0463 17.5841 22 20C22.4408 20.2692 22.2694 21.5593 22 22ZM15 0C6.7158 0 0 6.71594 0 15C0 23.285 6.7158 30 15 30C23.2844 30 30 23.285 30 15C30 6.71594 23.2844 0 15 0Z" fill="#1ED760"/>
</g>
<defs>
<clipPath id="clip0_1_525">
<rect width="30" height="30" fill="white"/>
</clipPath>
</defs>
</svg>
