<svg width="16" height="16" viewBox="0 0 16 16" fill="none" xmlns="http://www.w3.org/2000/svg">
<path d="M16 8.88762V7.05512L13.7829 6.32212L13.2686 5.07373L14.2743 2.96636L12.9829 1.67215L10.9143 2.71439L9.66857 2.199L8.88 0H7.05143L6.33143 2.2219L5.06286 2.73729L2.96 1.72942L1.66857 3.02362L2.70857 5.09664L2.19429 6.34503L0 7.12384V8.94488L2.21714 9.67788L2.73143 10.9263L1.72571 13.0336L3.01714 14.3278L5.08571 13.2856L6.33143 13.801L7.12 16H8.93714L9.65714 13.7781L10.9257 13.2627L13.0286 14.2706L14.32 12.9764L13.2686 10.9034L13.8057 9.65497L16 8.86471V8.88762ZM8 11.4417C6.10286 11.4417 4.57143 9.90694 4.57143 8.00573C4.57143 6.10451 6.10286 4.56979 8 4.56979C9.89714 4.56979 11.4286 6.10451 11.4286 8.00573C11.4286 9.90694 9.89714 11.4417 8 11.4417Z" fill="#F7FAFC"/>
</svg>
